HIERARCHY
ROOT Hips
{
	OFFSET 0.00000 0.00000 0.00000
	CHANNELS 6 Xposition Yposition Zposition Zrotation Yrotation Xrotation 
	JOINT LHipJoint
	{
		OFFSET 0 0 0
		CHANNELS 3 Zrotation Yrotation Xrotation
		JOINT LeftHip
		{
			OFFSET 1.43652 -1.81092 0.91346
			CHANNELS 3 Zrotation Yrotation Xrotation
			JOINT LeftKnee
			{
				OFFSET 2.45984 -6.75837 0.00000
				CHANNELS 3 Zrotation Yrotation Xrotation
				JOINT LeftAnkle
				{
					OFFSET 2.63718 -7.24559 0.00000
					CHANNELS 3 Zrotation Yrotation Xrotation
					JOINT LeftToe
					{
						OFFSET 0.19690 -0.54098 2.12239
						CHANNELS 3 Zrotation Yrotation Xrotation
						End Site
						{
							OFFSET 0.00000 -0.00000 1.10116
						}
					}
				}
			}
		}
	}
	JOINT RHipJoint
	{
		OFFSET 0 0 0
		CHANNELS 3 Zrotation Yrotation Xrotation
		JOINT RightHip
		{
			OFFSET -1.35116 -1.81092 0.91345
			CHANNELS 3 Zrotation Yrotation Xrotation
			JOINT RightKnee
			{
				OFFSET -2.55576 -7.02189 0.00000
				CHANNELS 3 Zrotation Yrotation Xrotation
				JOINT RightAnkle
				{
					OFFSET -2.61938 -7.19669 0.00000
					CHANNELS 3 Zrotation Yrotation Xrotation
					JOINT RightToe
					{
						OFFSET -0.32509 -0.89318 2.23646
						CHANNELS 3 Zrotation Yrotation Xrotation
						End Site
						{
							OFFSET -0.00000 -0.00000 1.19625
						}
					}
				}
			}
		}
	}
	JOINT lowerback
	{
		OFFSET 0 0 0
		CHANNELS 3 Zrotation Yrotation Xrotation
		JOINT Chest
		{
			OFFSET 0.05193 2.08077 -0.11958
			CHANNELS 3 Zrotation Yrotation Xrotation
			JOINT Chest2
			{
				OFFSET 0.04960 2.08447 0.01967
				CHANNELS 3 Zrotation Yrotation Xrotation
				JOINT lowerneck
				{
					OFFSET 0 0 0
					CHANNELS 3 Zrotation Yrotation Xrotation
					JOINT Neck
					{
						OFFSET -0.10699 1.82066 0.27584
						CHANNELS 3 Zrotation Yrotation Xrotation
						JOINT Head
						{
							OFFSET 0.14949 1.84747 -0.32279
							CHANNELS 3 Zrotation Yrotation Xrotation
							End Site
							{
								OFFSET 0.04969 1.88916 -0.14562
							}
						}
					}
				}
				JOINT LeftCollar
				{
					OFFSET 0 0 0
					CHANNELS 3 Zrotation Yrotation Xrotation
					JOINT LeftShoulder
					{
						OFFSET 3.73629 1.27211 -0.12847
CHANNELS 3 Zrotation Xrotation Yrotation
						JOINT LeftElbow
						{
OFFSET 0 -5.109950 0.000000
CHANNELS 3 Zrotation Xrotation Yrotation
							JOINT LeftWrist
							{
OFFSET 0 -3.212070 0.000000
CHANNELS 3 Zrotation Xrotation Yrotation
								JOINT lhand
								{
									OFFSET 0 0 0
CHANNELS 3 Zrotation Xrotation Yrotation
									JOINT LFingers
									{
OFFSET 0 -0.633490 0.000000
CHANNELS 3 Zrotation Xrotation Yrotation
										End Site
										{
OFFSET 0 -0.510740 0.000000
										}
									}
								}
								JOINT LThumb
								{
OFFSET 0 0.000000 0.000000
CHANNELS 3 Zrotation Xrotation Yrotation
									End Site
									{
OFFSET 0 -0.518530 0.518530
									}
								}
							}
						}
					}
				}
				JOINT RightCollar
				{
					OFFSET 0 0 0
					CHANNELS 3 Zrotation Yrotation Xrotation
					JOINT RightShoulder
					{
						OFFSET -3.70251 1.29541 -0.35354
CHANNELS 3 Zrotation Xrotation Yrotation
						JOINT RightElbow
						{
OFFSET 0 -5.251090 0.000000
CHANNELS 3 Zrotation Xrotation Yrotation
							JOINT RightWrist
							{
OFFSET 0 -3.283640 0.000000
CHANNELS 3 Zrotation Xrotation Yrotation
								JOINT rhand
								{
									OFFSET 0 0 0
CHANNELS 3 Zrotation Xrotation Yrotation
									JOINT RFingers
									{
OFFSET 0 -0.599740 0.000000
CHANNELS 3 Zrotation Xrotation Yrotation
										End Site
										{
OFFSET 0 -0.483530 0.000000
										}
									}
								}
								JOINT RThumb
								{
OFFSET 0 0.000000 0.000000
CHANNELS 3 Zrotation Xrotation Yrotation
									End Site
									{
OFFSET 0 -0.490910 0.490910
									}
								}
							}
						}
					}
				}
			}
		}
	}
}
MOTION
Frames: 11
Frame Time: 0.008333333333333333
9.932176 15.422811 -4.973129 18.861423 -109.341621 -42.017499 0.000000 0.000000 0.000000 4.384586 9.758975 -53.257215 28.028907 18.378239 114.103060 -0.139170 -11.411962 -5.768395 0.015602 -0.792692 -2.178667 0.000000 0.000000 0.000000 37.602902 10.572556 -1.780269 -9.760069 -17.272733 58.683470 -2.260163 5.966637 -27.204789 -0.630224 -5.079433 14.135254 4.123295 -0.317085 8.388771 1.798357 0.074770 -1.052777 -0.448427 -0.081002 -5.813459 -5.205072 14.553423 -15.484796 14.199472 17.824082 31.884630 8.201537 9.118693 10.857655 0.000000 0.000000 0.000000 -0.419538 -36.801574 -81.279091 118.795675 -56.612250 84.652833 45.115915 5.487894 -4.711770 0.000000 0.000000 0.000000 -7.125000 0.000000 0.000000 15.468716 36.252113 3.429145 0.000000 0.000000 0.000000 -8.545739 -28.212638 64.683751 -128.005149 -53.763777 -92.223257 -60.662865 -30.288316 -27.982836 0.000000 0.000000 0.000000 7.125000 0.000000 0.000000 -16.614592 -15.662658 -21.247061
9.871302 15.407118 -4.934580 17.601089 -109.835240 -41.580067 0.000000 0.000000 0.000000 4.283010 9.187592 -56.478163 27.809775 18.469403 113.410156 -0.127547 -11.346093 -5.912526 0.030341 -1.113880 -3.062325 0.000000 0.000000 0.000000 37.535505 10.324062 -0.693523 -9.766388 -17.276376 58.704592 -2.297647 6.205240 -27.414200 -0.603890 -4.974136 13.834841 4.446058 -0.142399 9.110316 1.778864 0.362560 -0.642968 -0.689728 0.052970 -5.778039 -5.229630 14.611698 -15.457689 14.162331 17.927255 31.795638 8.184448 9.164252 10.808277 0.000000 0.000000 0.000000 -0.263985 -37.959617 -80.533837 115.742418 -57.330417 82.092415 44.831544 4.567302 -4.721416 0.000000 0.000000 0.000000 -7.125000 0.000000 0.000000 15.231123 36.245773 3.375758 0.000000 0.000000 0.000000 -7.816215 -28.700894 64.309457 -126.061009 -54.459503 -90.647876 -60.455703 -30.889759 -27.764168 0.000000 0.000000 0.000000 7.125000 0.000000 0.000000 -16.578281 -15.234667 -21.113247
9.809831 15.394834 -4.894684 16.246915 -110.299093 -41.054597 0.000000 0.000000 0.000000 4.138336 8.554792 -59.495632 27.465181 18.606816 112.326669 -0.111385 -11.135671 -6.006068 0.050633 -1.444325 -3.972433 0.000000 0.000000 0.000000 37.373887 10.062625 0.396632 -9.765218 -17.275705 58.700671 -2.334198 6.470871 -27.614550 -0.578504 -4.870347 13.539161 4.756339 0.029307 9.823254 1.725168 0.644684 -0.243817 -0.962751 0.184123 -5.743840 -5.210574 14.673985 -15.420401 14.118160 18.023914 31.722007 8.160034 9.209330 10.769649 0.000000 0.000000 0.000000 -0.029535 -39.086928 -79.738412 112.340355 -58.015942 79.217111 44.413639 3.661442 -4.753706 0.000000 0.000000 0.000000 -7.125000 0.000000 0.000000 14.885463 36.260983 3.289084 0.000000 0.000000 0.000000 -6.982484 -29.147989 63.925123 -123.846319 -55.188012 -88.837288 -60.161831 -31.372798 -27.478927 0.000000 0.000000 0.000000 7.125000 0.000000 0.000000 -16.517631 -14.658551 -20.915615
9.748278 15.385565 -4.853527 14.864583 -110.732496 -40.500174 0.000000 0.000000 0.000000 3.990630 7.870359 -62.294848 27.000994 18.780614 110.878867 -0.088646 -10.769721 -6.087921 0.077434 -1.789659 -4.924778 0.000000 0.000000 0.000000 37.136349 9.784995 1.482441 -9.755135 -17.269816 58.666775 -2.369265 6.756915 -27.803667 -0.554648 -4.770685 13.255597 5.061806 0.190233 10.531025 1.647327 0.912131 0.141595 -1.259804 0.307766 -5.716195 -5.147387 14.740204 -15.378301 14.060753 18.116333 31.664789 8.127209 9.254077 10.743874 0.000000 0.000000 0.000000 0.296963 -40.179690 -78.881351 108.596340 -58.641108 76.030301 43.865993 2.724013 -4.764850 0.000000 0.000000 0.000000 -7.125000 0.000000 0.000000 14.426175 36.239054 3.189908 0.000000 0.000000 0.000000 -6.049502 -29.553185 63.529210 -121.339824 -55.935478 -86.769773 -59.764801 -31.733984 -27.120157 0.000000 0.000000 0.000000 7.125000 0.000000 0.000000 -16.425632 -13.914475 -20.639676
9.686758 15.379156 -4.811966 13.472445 -111.115771 -39.940845 0.000000 0.000000 0.000000 3.847107 7.145489 -64.855022 26.422394 18.979560 109.091070 -0.058703 -10.243886 -6.182061 0.107886 -2.115178 -5.824121 0.000000 0.000000 0.000000 36.822610 9.482036 2.566979 -9.735575 -17.258470 58.600851 -2.403226 7.052646 -27.986387 -0.532163 -4.674220 12.981777 5.341799 0.338698 11.239111 1.556543 1.160635 0.515694 -1.556847 0.422466 -5.696391 -5.057326 14.804459 -15.338459 13.980739 18.205107 31.613606 8.084697 9.296352 10.727524 0.000000 0.000000 0.000000 0.668810 -41.244738 -77.986795 104.510923 -59.179804 72.531346 43.167789 1.669280 -4.697822 0.000000 0.000000 0.000000 -7.125000 0.000000 0.000000 13.826325 36.104240 3.097136 0.000000 0.000000 0.000000 -5.045501 -29.915380 63.090812 -118.534092 -56.682076 -84.435184 -59.223728 -32.020404 -26.734654 0.000000 0.000000 0.000000 7.125000 0.000000 0.000000 -16.264735 -13.034327 -20.241167
9.626042 15.374979 -4.770023 12.113647 -111.459765 -39.403046 0.000000 0.000000 0.000000 3.737776 6.405818 -67.194294 25.736511 19.190912 106.993445 -0.023165 -9.571722 -6.299584 0.139487 -2.405365 -6.627354 0.000000 0.000000 0.000000 36.459107 9.170517 3.634214 -9.707034 -17.241814 58.504686 -2.435824 7.337307 -28.161630 -0.507382 -4.565696 12.673911 5.552879 0.474027 11.907044 1.500128 1.381486 0.893510 -1.777138 0.526108 -5.649017 -4.971277 14.867247 -15.319204 13.863874 18.305235 31.583724 8.036317 9.337114 10.726442 0.000000 0.000000 0.000000 1.043752 -42.307635 -77.035632 100.068789 -59.606776 68.707877 42.401184 0.496297 -4.497724 0.000000 0.000000 0.000000 -7.125000 0.000000 0.000000 13.149302 35.792825 3.040770 0.000000 0.000000 0.000000 -4.031006 -30.270055 62.623751 -115.422157 -57.406959 -81.823977 -58.512524 -32.230069 -26.309280 0.000000 0.000000 0.000000 7.125000 0.000000 0.000000 -16.024737 -11.989238 -19.701333
9.565873 15.372570 -4.727912 10.814590 -111.768484 -38.907026 0.000000 0.000000 0.000000 3.673280 5.670875 -69.314578 24.950568 19.401449 104.614698 0.017518 -8.754380 -6.465288 0.171212 -2.665093 -7.347786 0.000000 0.000000 0.000000 36.062834 8.852817 4.680949 -9.670365 -17.220284 58.380643 -2.467612 7.595730 -28.335001 -0.477738 -4.432427 12.296663 5.677374 0.591204 12.517645 1.500810 1.563834 1.280517 -1.883522 0.614106 -5.562605 -4.913413 14.933717 -15.329396 13.704875 18.433227 31.586033 7.986456 9.380151 10.742066 0.000000 0.000000 0.000000 1.434280 -43.377258 -75.999628 95.291956 -59.891356 64.581212 41.621317 -0.777920 -4.154115 0.000000 0.000000 0.000000 -7.125000 0.000000 0.000000 12.444230 35.299390 3.024204 0.000000 0.000000 0.000000 -3.024142 -30.624655 62.157028 -112.002126 -58.087728 -78.931902 -57.617127 -32.361044 -25.838495 0.000000 0.000000 0.000000 7.125000 0.000000 0.000000 -15.698031 -10.772784 -19.012007
9.506396 15.371477 -4.685887 9.591883 -112.041023 -38.460461 0.000000 0.000000 0.000000 3.658078 4.952168 -71.219431 24.068365 19.597655 101.972429 0.060813 -7.801424 -6.685585 0.203602 -2.904780 -8.013892 0.000000 0.000000 0.000000 35.645290 8.534661 5.695676 -9.627091 -17.194690 58.234421 -2.499344 7.807974 -28.511212 -0.439307 -4.252617 11.788460 5.710320 0.698413 13.052303 1.563667 1.714896 1.678495 -1.867759 0.689850 -5.426652 -4.894499 14.995758 -15.362744 13.509559 18.578325 31.620615 7.936987 9.419879 10.772832 0.000000 0.000000 0.000000 1.816613 -44.467783 -74.920416 90.163377 -59.996340 60.141507 41.013252 -2.074592 -3.647555 0.000000 0.000000 0.000000 -7.125000 0.000000 0.000000 11.866353 34.612255 3.080913 0.000000 0.000000 0.000000 -2.032705 -30.972423 61.665420 -108.256361 -58.700134 -75.741261 -56.542499 -32.412959 -25.341105 0.000000 0.000000 0.000000 7.125000 0.000000 0.000000 -15.279390 -9.427010 -18.180213
9.447750 15.370845 -4.643681 8.479232 -112.290469 -38.089348 0.000000 0.000000 0.000000 3.707307 4.271888 -72.927358 23.099783 19.765826 99.097915 0.102589 -6.749047 -6.943719 0.234142 -3.113629 -8.595186 0.000000 0.000000 0.000000 35.232541 8.227756 6.674035 -9.579165 -17.166326 58.072280 -2.531294 7.977365 -28.690399 -0.394574 -4.032754 11.168879 5.702286 0.795336 13.519916 1.669955 1.841239 2.076431 -1.778379 0.754408 -5.256832 -4.913994 15.052655 -15.404046 13.299501 18.731641 31.687789 7.892501 9.455029 10.814066 0.000000 0.000000 0.000000 2.257086 -45.580520 -73.813100 84.746950 -59.885026 55.452889 40.597882 -3.277628 -3.040435 0.000000 0.000000 0.000000 -7.125000 0.000000 0.000000 11.440496 33.811885 3.192651 0.000000 0.000000 0.000000 -1.046967 -31.294824 61.137441 -104.198662 -59.217834 -72.263698 -55.329712 -32.374262 -24.804778 0.000000 0.000000 0.000000 7.125000 0.000000 0.000000 -14.791095 -7.977956 -17.247478
9.390074 15.370327 -4.601740 7.466766 -112.514574 -37.787046 0.000000 0.000000 0.000000 3.808610 3.640244 -74.449077 22.055663 19.894622 96.021135 0.138968 -5.643208 -7.213326 0.261576 -3.289992 -9.087244 0.000000 0.000000 0.000000 34.826134 7.933933 7.616976 -9.529002 -17.136277 57.902066 -2.563286 8.118091 -28.870971 -0.347884 -3.788755 10.483282 5.695319 0.881057 13.949132 1.784770 1.949233 2.460897 -1.677097 0.808998 -5.081168 -4.931428 15.103252 -15.452296 13.096728 18.873063 31.778814 7.853286 9.484194 10.866808 0.000000 0.000000 0.000000 2.806737 -46.716518 -72.717387 79.101963 -59.528792 50.578223 40.278068 -4.289029 -2.384162 0.000000 0.000000 0.000000 -7.125000 0.000000 0.000000 11.091291 32.957999 3.325209 0.000000 0.000000 0.000000 -0.025596 -31.562848 60.565530 -99.846426 -59.619824 -68.515805 -54.021362 -32.233750 -24.234752 0.000000 0.000000 0.000000 7.125000 0.000000 0.000000 -14.251619 -6.469865 -16.253037
9.333833 15.369975 -4.560053 6.533354 -112.713139 -37.536610 0.000000 0.000000 0.000000 3.950932 3.068118 -75.788786 20.944527 19.973307 92.763157 0.165791 -4.559537 -7.449897 0.281424 -3.411869 -9.427573 0.000000 0.000000 0.000000 34.421738 7.656663 8.526122 -9.477847 -17.105517 57.728293 -2.594656 8.246952 -29.047568 -0.303659 -3.541521 9.790307 5.707245 0.958723 14.366405 1.889687 2.048422 2.819939 -1.595673 0.857528 -4.924779 -4.939049 15.145486 -15.490647 12.917447 18.991699 31.879699 7.819304 9.506293 10.922321 0.000000 0.000000 0.000000 3.488928 -47.876490 -71.671664 73.302779 -58.894780 45.595787 39.973740 -4.977040 -1.746447 0.000000 0.000000 0.000000 -7.125000 0.000000 0.000000 10.761590 32.134000 3.440703 0.000000 0.000000 0.000000 1.034621 -31.754187 59.930598 -95.226750 -59.882026 -64.524386 -52.653533 -31.981677 -23.629919 0.000000 0.000000 0.000000 7.125000 0.000000 0.000000 -13.677803 -4.930238 -15.228903
